<svg viewBox="0 0 375.6 285.14" xmlns="http://www.w3.org/2000/svg" xmlns:xlink="http://www.w3.org/1999/xlink"><linearGradient id="a" gradientTransform="matrix(.86871798 -.49530706 .49530706 .86871798 -80.53 447.05)" gradientUnits="userSpaceOnUse" x1="427.91" x2="498.58" y1="37.06" y2="37.06"><stop offset="0" stop-color="#ff0"/><stop offset="1" stop-color="#009cbf"/></linearGradient><linearGradient id="b" gradientTransform="matrix(.8670707 -.49818511 .49818511 .8670707 -66.9 450.93)" x1="421.38" x2="492.53" xlink:href="#a" y1="28.68" y2="28.68"/><linearGradient id="c" gradientTransform="matrix(.8480199 -.49118454 .49118454 .8480199 -53.27 454.82)" x1="414.82" x2="486.45" xlink:href="#a" y1="20.04" y2="20.04"/><linearGradient id="d" gradientTransform="matrix(.84630018 -.49414169 .49414169 .84630018 -39.64 458.7)" x1="408.22" x2="480.35" xlink:href="#a" y1="11.15" y2="11.15"/><linearGradient id="e" gradientTransform="matrix(.8358662 -.49216633 .49216633 .8358662 -26.01 462.59)" x1="401.6" x2="474.23" xlink:href="#a" y1="2" y2="2"/><linearGradient id="f" gradientTransform="matrix(.82554371 -.48997712 .48997712 .82554371 -12.38 466.48)" x1="394.94" x2="468.09" xlink:href="#a" y1="-7.42" y2="-7.42"/><linearGradient id="g" gradientTransform="matrix(.8150765 -.48800645 .48800645 .8150765 1.25 470.36)" x1="388.26" x2="461.93" xlink:href="#a" y1="-17.11" y2="-17.11"/><linearGradient id="h" gradientTransform="matrix(.80472152 -.48582226 .48582226 .80472152 14.88 474.25)" x1="381.55" x2="455.75" xlink:href="#a" y1="-27.08" y2="-27.08"/><linearGradient id="i" gradientTransform="matrix(.80285017 -.48890858 .48890858 .80285017 28.51 478.13)" x1="374.81" x2="449.55" xlink:href="#a" y1="-37.33" y2="-37.33"/><linearGradient id="j" gradientTransform="matrix(.79244606 -.48675378 .48675378 .79244606 42.14 482.02)" x1="368.05" x2="443.34" xlink:href="#a" y1="-47.87" y2="-47.87"/><linearGradient id="k" gradientTransform="matrix(.78198588 -.48466286 .48466286 .78198588 55.77 485.9)" x1="361.27" x2="437.11" xlink:href="#a" y1="-58.71" y2="-58.71"/><linearGradient id="l" gradientTransform="matrix(.77155539 -.48249588 .48249588 .77155539 69.4 489.79)" x1="354.46" x2="430.87" xlink:href="#a" y1="-69.85" y2="-69.85"/><linearGradient id="m" gradientTransform="matrix(.76115504 -.48025306 .48025306 .76115504 83.04 493.67)" x1="347.64" x2="424.63" xlink:href="#a" y1="-81.3" y2="-81.3"/><linearGradient id="n" gradientTransform="matrix(.75913669 -.48343716 .48343716 .75913669 96.67 497.56)" x1="340.8" x2="418.37" xlink:href="#a" y1="-93.08" y2="-93.08"/><linearGradient id="o" gradientTransform="matrix(.74869274 -.48120597 .48120597 .74869274 110.3 501.44)" x1="333.95" x2="412.12" xlink:href="#a" y1="-105.17" y2="-105.17"/><linearGradient id="p" gradientTransform="matrix(.73819736 -.4790247 .4790247 .73819736 123.93 505.33)" x1="327.09" x2="405.86" xlink:href="#a" y1="-117.61" y2="-117.61"/><linearGradient id="q" gradientTransform="matrix(.72773542 -.47676111 .47676111 .72773542 137.56 509.21)" x1="320.21" x2="399.61" xlink:href="#a" y1="-130.38" y2="-130.38"/><linearGradient id="r" gradientTransform="matrix(.71722464 -.47454064 .47454064 .71722464 151.19 513.1)" x1="313.34" x2="393.36" xlink:href="#a" y1="-143.51" y2="-143.51"/><linearGradient id="s" gradientTransform="matrix(.71506387 -.4777904 .4777904 .71506387 164.82 516.98)" x1="306.46" x2="387.12" xlink:href="#a" y1="-156.99" y2="-156.99"/><linearGradient id="t" gradientTransform="matrix(.70451598 -.47555992 .47555992 .70451598 178.45 520.87)" x1="299.59" x2="380.9" xlink:href="#a" y1="-170.85" y2="-170.85"/><linearGradient id="u" gradientTransform="matrix(.69400517 -.47324076 .47324076 .69400517 192.08 524.75)" x1="292.72" x2="374.7" xlink:href="#a" y1="-185.07" y2="-185.07"/><linearGradient id="v" gradientTransform="matrix(.68353206 -.47083323 .47083323 .68353206 205.71 528.64)" x1="285.86" x2="368.51" xlink:href="#a" y1="-199.69" y2="-199.69"/><linearGradient id="w" gradientTransform="matrix(.67301547 -.46845509 .46845509 .67301547 219.34 532.52)" x1="279.02" x2="362.36" xlink:href="#a" y1="-214.7" y2="-214.7"/><linearGradient id="x" gradientTransform="matrix(.6706358 -.47185552 .47185552 .6706358 232.97 536.41)" x1="272.2" x2="356.24" xlink:href="#a" y1="-230.11" y2="-230.11"/><linearGradient id="y" gradientTransform="matrix(.66008969 -.46944819 .46944819 .66008969 246.6 540.29)" x1="265.41" x2="350.15" xlink:href="#a" y1="-245.95" y2="-245.95"/><linearGradient id="z" gradientTransform="matrix(.64950383 -.46705972 .46705972 .64950383 260.23 544.18)" x1="258.65" x2="344.12" xlink:href="#a" y1="-262.2" y2="-262.2"/><linearGradient id="A" gradientTransform="matrix(.6389613 -.46457342 .46457342 .6389613 273.86 548.06)" x1="251.93" x2="338.13" xlink:href="#a" y1="-278.89" y2="-278.89"/><linearGradient id="B" gradientTransform="matrix(.63643837 -.46802371 .46802371 .63643837 287.49 551.95)" x1="245.26" x2="332.21" xlink:href="#a" y1="-296.03" y2="-296.03"/><linearGradient id="C" gradientTransform="matrix(.62579155 -.46560169 .46560169 .62579155 301.12 555.83)" x1="238.64" x2="326.35" xlink:href="#a" y1="-313.63" y2="-313.63"/><linearGradient id="D" gradientTransform="matrix(.61519189 -.46307552 .46307552 .61519189 314.75 559.72)" x1="232.08" x2="320.56" xlink:href="#a" y1="-331.7" y2="-331.7"/><linearGradient id="E" gradientTransform="matrix(.60455985 -.46055118 .46055118 .60455985 328.38 563.61)" x1="225.59" x2="314.86" xlink:href="#a" y1="-350.24" y2="-350.24"/><linearGradient id="F" gradientTransform="matrix(.60189725 -.46402554 .46402554 .60189725 342.01 567.49)" x1="219.18" x2="309.26" xlink:href="#a" y1="-369.29" y2="-369.29"/><linearGradient id="G" gradientTransform="matrix(.59116921 -.46153978 .46153978 .59116921 355.64 571.38)" x1="212.86" x2="303.76" xlink:href="#a" y1="-388.83" y2="-388.83"/><linearGradient id="H" gradientTransform="matrix(.58057438 -.45883917 .45883917 .58057438 369.27 575.26)" x1="206.64" x2="298.37" xlink:href="#a" y1="-408.9" y2="-408.9"/><linearGradient id="I" gradientTransform="matrix(.56987349 -.45622824 .45622824 .56987349 382.9 579.15)" x1="200.54" x2="293.11" xlink:href="#a" y1="-429.49" y2="-429.49"/><linearGradient id="J" gradientTransform="matrix(.56699569 -.45979984 .45979984 .56699569 396.53 583.03)" x1="194.55" x2="287.98" xlink:href="#a" y1="-450.63" y2="-450.63"/><linearGradient id="K" gradientTransform="matrix(.5562884 -.45710307 .45710307 .5562884 410.16 586.92)" x1="188.71" x2="283.01" xlink:href="#a" y1="-472.32" y2="-472.32"/><linearGradient id="L" gradientTransform="matrix(.54556061 -.45438268 .45438268 .54556061 423.79 590.8)" x1="183.01" x2="278.21" xlink:href="#a" y1="-494.58" y2="-494.58"/><linearGradient id="M" gradientTransform="matrix(.5348149 -.45163372 .45163372 .5348149 437.42 594.69)" x1="177.48" x2="273.58" xlink:href="#a" y1="-517.43" y2="-517.43"/><linearGradient id="N" gradientTransform="matrix(.53172836 -.4552636 .4552636 .53172836 451.05 598.57)" x1="172.13" x2="269.16" xlink:href="#a" y1="-540.87" y2="-540.87"/><linearGradient id="O" gradientTransform="matrix(.52090759 -.45249893 .45249893 .52090759 464.68 602.46)" x1="166.98" x2="264.95" xlink:href="#a" y1="-564.93" y2="-564.93"/><linearGradient id="P" gradientTransform="matrix(.51015401 -.44960304 .44960304 .51015401 478.32 606.34)" x1="162.04" x2="260.97" xlink:href="#a" y1="-589.6" y2="-589.6"/><linearGradient id="Q" gradientTransform="matrix(.49939097 -.44666392 .44666392 .49939097 491.95 610.23)" x1="157.34" x2="257.24" xlink:href="#a" y1="-614.92" y2="-614.92"/><linearGradient id="R" gradientTransform="matrix(.49602476 -.4503992 .4503992 .49602476 505.58 614.11)" x1="152.9" x2="253.79" xlink:href="#a" y1="-640.89" y2="-640.89"/><linearGradient id="S" gradientTransform="matrix(.48519984 -.44741604 .44741604 .48519984 519.21 618)" x1="148.73" x2="250.63" xlink:href="#a" y1="-667.52" y2="-667.52"/><linearGradient id="T" gradientTransform="matrix(.47437287 -.44437639 .44437639 .47437287 532.84 621.88)" x1="144.86" x2="247.79" xlink:href="#a" y1="-694.84" y2="-694.84"/><linearGradient id="U" gradientTransform="matrix(.46354702 -.44127561 .44127561 .46354702 546.47 625.77)" x1="141.33" x2="245.29" xlink:href="#a" y1="-722.84" y2="-722.84"/><linearGradient id="V" gradientTransform="matrix(.45998933 -.44498294 .44498294 .45998933 560.1 629.65)" x1="138.14" x2="243.16" xlink:href="#a" y1="-751.56" y2="-751.56"/><linearGradient id="W" gradientTransform="matrix(.44911651 -.44180805 .44180805 .44911651 573.73 633.54)" x1="135.33" x2="241.43" xlink:href="#a" y1="-780.99" y2="-780.99"/><linearGradient id="X" gradientTransform="matrix(.43825314 -.43855921 .43855921 .43825314 587.36 637.42)" x1="132.94" x2="240.13" xlink:href="#a" y1="-811.16" y2="-811.16"/><linearGradient id="Y" gradientTransform="matrix(.43433214 -.44244275 .44244275 .43433214 600.99 641.31)" x1="130.98" x2="239.29" xlink:href="#a" y1="-842.07" y2="-842.07"/><linearGradient id="Z" gradientTransform="matrix(.42343516 -.439093 .439093 .42343516 614.62 645.19)" x1="129.5" x2="238.94" xlink:href="#a" y1="-873.74" y2="-873.74"/><linearGradient id="aa" gradientTransform="matrix(.41255675 -.43565689 .43565689 .41255675 628.25 649.08)" x1="128.53" x2="239.12" xlink:href="#a" y1="-906.18" y2="-906.18"/><linearGradient id="ab" gradientTransform="matrix(.40843252 -.43952574 .43952574 .40843252 641.88 652.96)" x1="128.11" x2="239.86" xlink:href="#a" y1="-939.39" y2="-939.39"/><linearGradient id="ac" gradientTransform="matrix(.39745805 -.43603566 .43603566 .39745805 655.51 656.85)" x1="128.27" x2="241.21" xlink:href="#a" y1="-973.4" y2="-973.4"/><linearGradient id="ad" gradientTransform="matrix(.38651336 -.43244355 .43244355 .38651336 669.14 660.74)" x1="129.06" x2="243.21" xlink:href="#a" y1="-1008.19" y2="-1008.19"/><linearGradient id="ae" gradientTransform="matrix(.3821922 -.43626726 .43626726 .3821922 682.77 664.62)" x1="130.53" x2="245.89" xlink:href="#a" y1="-1043.79" y2="-1043.79"/><linearGradient id="af" gradientTransform="matrix(.37116786 -.43259036 .43259036 .37116786 696.4 668.51)" x1="132.71" x2="249.32" xlink:href="#a" y1="-1080.19" y2="-1080.19"/><linearGradient id="ag" gradientTransform="matrix(.36018563 -.42879635 .42879635 .36018563 710.03 672.39)" x1="135.66" x2="253.52" xlink:href="#a" y1="-1117.41" y2="-1117.41"/><linearGradient id="ah" gradientTransform="matrix(.35560012 -.4326067 .4326067 .35560012 723.66 676.28)" x1="139.43" x2="258.56" xlink:href="#a" y1="-1155.43" y2="-1155.43"/><linearGradient id="ai" gradientTransform="matrix(.34455728 -.42869602 .42869602 .34455728 737.29 680.16)" x1="144.06" x2="264.49" xlink:href="#a" y1="-1194.27" y2="-1194.27"/><linearGradient id="aj" gradientTransform="matrix(.33349596 -.42471219 .42471219 .33349596 750.92 684.05)" x1="149.63" x2="271.36" xlink:href="#a" y1="-1233.92" y2="-1233.92"/><linearGradient id="ak" gradientTransform="matrix(.32858161 -.42852553 .42852553 .32858161 764.55 687.93)" x1="156.17" x2="279.24" xlink:href="#a" y1="-1274.36" y2="-1274.36"/><linearGradient id="al" gradientTransform="matrix(.31755657 -.42433221 .42433221 .31755657 778.18 691.82)" x1="163.77" x2="288.17" xlink:href="#a" y1="-1315.6" y2="-1315.6"/><linearGradient id="am" gradientTransform="matrix(.31242353 -.42812561 .42812561 .31242353 791.81 695.7)" x1="172.47" x2="298.23" xlink:href="#a" y1="-1357.63" y2="-1357.63"/><linearGradient id="an" gradientTransform="matrix(.30137415 -.42376128 .42376128 .30137415 805.44 699.59)" x1="182.35" x2="309.48" xlink:href="#a" y1="-1400.41" y2="-1400.41"/><linearGradient id="ao" gradientTransform="matrix(.29025937 -.41934413 .41934413 .29025937 819.07 703.47)" x1="193.46" x2="321.98" xlink:href="#a" y1="-1443.94" y2="-1443.94"/><linearGradient id="ap" gradientTransform="matrix(.2848193 -.42305787 .42305787 .2848193 832.7 707.36)" x1="205.89" x2="335.8" xlink:href="#a" y1="-1488.19" y2="-1488.19"/><linearGradient id="aq" gradientTransform="matrix(.27378161 -.41838216 .41838216 .27378161 846.33 711.24)" x1="219.7" x2="351.02" xlink:href="#a" y1="-1533.14" y2="-1533.14"/><linearGradient id="ar" gradientTransform="matrix(.26813441 -.42202363 .42202363 .26813441 859.97 715.13)" x1="234.96" x2="367.71" xlink:href="#a" y1="-1578.74" y2="-1578.74"/><linearGradient id="as" gradientTransform="matrix(.25704439 -.41716685 .41716685 .25704439 873.6 719.01)" x1="251.76" x2="385.93" xlink:href="#a" y1="-1624.95" y2="-1624.95"/><linearGradient id="at" gradientTransform="matrix(.25112135 -.42075892 .42075892 .25112135 887.23 722.9)" x1="270.16" x2="405.77" xlink:href="#a" y1="-1671.74" y2="-1671.74"/><linearGradient id="au" gradientTransform="matrix(.24 -.41569219 .41569219 .24 900.86 726.78)" x1="290.24" x2="427.3" xlink:href="#a" y1="-1719.05" y2="-1719.05"/><linearGradient id="av" gradientTransform="matrix(.2338069 -.41920679 .41920679 .2338069 914.49 730.67)" x1="312.08" x2="450.59" xlink:href="#a" y1="-1766.82" y2="-1766.82"/><linearGradient id="aw" gradientTransform="matrix(.22274923 -.41386324 .41386324 .22274923 928.12 734.55)" x1="335.76" x2="475.72" xlink:href="#a" y1="-1814.98" y2="-1814.98"/><linearGradient id="ax" gradientTransform="matrix(.21176318 -.40835812 .40835812 .21176318 941.75 738.44)" x1="361.34" x2="502.76" xlink:href="#a" y1="-1863.46" y2="-1863.46"/><linearGradient id="ay" gradientTransform="matrix(.20532284 -.41163398 .41163398 .20532284 955.38 742.32)" x1="388.91" x2="531.79" xlink:href="#a" y1="-1912.17" y2="-1912.17"/><linearGradient id="az" gradientTransform="matrix(.19861462 -.41491232 .41491232 .19861462 969.01 746.21)" x1="418.54" x2="562.86" xlink:href="#a" y1="-1961.04" y2="-1961.04"/><linearGradient id="aA" gradientTransform="matrix(.18761196 -.40902537 .40902537 .18761196 982.64 750.09)" x1="450.29" x2="596.06" xlink:href="#a" y1="-2009.95" y2="-2009.95"/><linearGradient id="aB" gradientTransform="matrix(.18073266 -.41211128 .41211128 .18073266 996.27 753.98)" x1="484.23" x2="631.44" xlink:href="#a" y1="-2058.81" y2="-2058.81"/><linearGradient id="aC" gradientTransform="matrix(.16979866 -.40591676 .40591676 .16979866 1009.9 757.87)" x1="520.43" x2="669.06" xlink:href="#a" y1="-2107.49" y2="-2107.49"/><linearGradient id="aD" gradientTransform="matrix(.16268857 -.40881833 .40881833 .16268857 1023.53 761.75)" x1="558.92" x2="708.98" xlink:href="#a" y1="-2155.88" y2="-2155.88"/><linearGradient id="aE" gradientTransform="matrix(.15185376 -.40229396 .40229396 .15185376 1037.16 765.64)" x1="599.77" x2="751.23" xlink:href="#a" y1="-2203.83" y2="-2203.83"/><linearGradient id="aF" gradientTransform="matrix(.14452694 -.4049839 .4049839 .14452694 1050.79 769.52)" x1="643.02" x2="795.85" xlink:href="#a" y1="-2251.21" y2="-2251.21"/><linearGradient id="aG" gradientTransform="matrix(.13382395 -.39810947 .39810947 .13382395 1064.42 773.41)" x1="688.69" x2="842.87" xlink:href="#a" y1="-2297.88" y2="-2297.88"/><linearGradient id="aH" gradientTransform="matrix(.12636634 -.40053907 .40053907 .12636634 1078.05 777.29)" x1="736.8" x2="892.31" xlink:href="#a" y1="-2343.66" y2="-2343.66"/><linearGradient id="aI" gradientTransform="matrix(.11865373 -.40289117 .40289117 .11865373 1091.68 781.18)" x1="787.36" x2="944.17" xlink:href="#a" y1="-2388.41" y2="-2388.41"/><linearGradient id="aJ" gradientTransform="matrix(.10811893 -.39548742 .39548742 .10811893 1105.31 785.06)" x1="840.37" x2="998.44" xlink:href="#a" y1="-2431.94" y2="-2431.94"/><linearGradient id="aK" gradientTransform="matrix(.10029852 -.39754271 .39754271 .10029852 1118.94 788.95)" x1="895.82" x2="1055.11" xlink:href="#a" y1="-2474.09" y2="-2474.09"/><linearGradient id="aL" gradientTransform="matrix(.09229966 -.39947562 .39947562 .09229966 1132.57 792.83)" x1="953.67" x2="1114.14" xlink:href="#a" y1="-2514.69" y2="-2514.69"/><linearGradient id="aM" gradientTransform="matrix(.08207175 -.39148975 .39148975 .08207175 1146.2 796.72)" x1="1013.87" x2="1175.47" xlink:href="#a" y1="-2553.54" y2="-2553.54"/><linearGradient id="aN" gradientTransform="matrix(.07392362 -.39310978 .39310978 .07392362 1159.83 800.6)" x1="1076.36" x2="1239.05" xlink:href="#a" y1="-2590.47" y2="-2590.47"/><linearGradient id="aO" gradientTransform="matrix(.06567474 -.3945717 .3945717 .06567474 1173.46 804.49)" x1="1141.06" x2="1304.78" xlink:href="#a" y1="-2625.3" y2="-2625.3"/><linearGradient id="aP" gradientTransform="matrix(.05732796 -.39587057 .39587057 .05732796 1187.09 808.37)" x1="1207.87" x2="1372.56" xlink:href="#a" y1="-2657.85" y2="-2657.85"/><linearGradient id="aQ" gradientTransform="matrix(.04752904 -.387093 .387093 .04752904 1200.72 812.26)" x1="1276.68" x2="1442.28" xlink:href="#a" y1="-2687.95" y2="-2687.95"/><linearGradient id="aR" gradientTransform="matrix(.03914107 -.3880309 .3880309 .03914107 1214.35 816.14)" x1="1347.36" x2="1513.79" xlink:href="#a" y1="-2715.44" y2="-2715.44"/><linearGradient id="aS" gradientTransform="matrix(.03059905 -.38879776 .38879776 .03059905 1227.98 820.03)" x1="1419.75" x2="1586.96" xlink:href="#a" y1="-2740.16" y2="-2740.16"/><linearGradient id="aT" gradientTransform="matrix(.02197427 -.38938045 .38938045 .02197427 1241.61 823.91)" x1="1493.68" x2="1661.59" xlink:href="#a" y1="-2761.96" y2="-2761.96"/><linearGradient id="aU" gradientTransform="matrix(.01327067 -.38977415 .38977415 .01327067 1255.25 827.8)" x1="1568.99" x2="1737.52" xlink:href="#a" y1="-2780.71" y2="-2780.71"/><linearGradient id="aV" gradientTransform="matrix(.00456044 -.38997334 .38997334 .00456044 1268.88 831.68)" x1="1645.46" x2="1814.54" xlink:href="#a" y1="-2796.3" y2="-2796.3"/><linearGradient id="aW" gradientTransform="matrix(-.00428819 -.38997642 .38997642 -.00428819 1282.51 835.57)" x1="1722.9" x2="1892.44" xlink:href="#a" y1="-2808.62" y2="-2808.62"/><linearGradient id="aX" gradientTransform="matrix(-.01279782 -.37978443 .37978443 -.01279782 1296.14 839.45)" x1="1801.07" x2="1970.99" xlink:href="#a" y1="-2817.59" y2="-2817.59"/><linearGradient id="aY" gradientTransform="matrix(-.02147704 -.37939259 .37939259 -.02147704 1309.77 843.34)" x1="1879.76" x2="2049.98" xlink:href="#a" y1="-2823.14" y2="-2823.14"/><linearGradient id="aZ" gradientTransform="matrix(-.03021115 -.37879716 .37879716 -.03021115 1323.4 847.22)" x1="1958.72" x2="2129.15" xlink:href="#a" y1="-2825.25" y2="-2825.25"/><linearGradient id="a0" gradientTransform="matrix(-.03886325 -.37800747 .37800747 -.03886325 1337.03 851.11)" x1="2037.71" x2="2208.27" xlink:href="#a" y1="-2823.87" y2="-2823.87"/><linearGradient id="a1" gradientTransform="matrix(-.04756083 -.37701189 .37701189 -.04756083 1350.66 855)" x1="2116.63" x2="2287.23" xlink:href="#a" y1="-2818.8" y2="-2818.8"/><linearGradient id="a2" gradientTransform="matrix(-.05623317 -.37581622 .37581622 -.05623317 1364.29 858.88)" x1="2195.47" x2="2366.03" xlink:href="#a" y1="-2809.88" y2="-2809.88"/><linearGradient id="a3" gradientTransform="matrix(-.06481032 -.3744324 .3744324 -.06481032 1377.92 862.77)" x1="2273.98" x2="2444.41" xlink:href="#a" y1="-2797.17" y2="-2797.17"/><linearGradient id="a4" gradientTransform="matrix(-.07341866 -.37284005 .37284005 -.07341866 1391.55 866.65)" x1="2351.88" x2="2522.1" xlink:href="#a" y1="-2780.71" y2="-2780.71"/><linearGradient id="a5" gradientTransform="matrix(-.08185851 -.37107841 .37107841 -.08185851 1405.18 870.54)" x1="2428.93" x2="2598.85" xlink:href="#a" y1="-2760.58" y2="-2760.58"/><linearGradient id="a6" gradientTransform="matrix(-.0926975 -.37882341 .37882341 -.0926975 1418.81 874.42)" x1="2504.88" x2="2674.42" xlink:href="#a" y1="-2736.86" y2="-2736.86"/><linearGradient id="a7" gradientTransform="matrix(-.1012024 -.37664051 .37664051 -.1012024 1432.44 878.31)" x1="2579.48" x2="2748.56" xlink:href="#a" y1="-2709.67" y2="-2709.67"/><linearGradient id="a8" gradientTransform="matrix(-.109656 -.3742667 .3742667 -.109656 1446.07 882.19)" x1="2652.53" x2="2821.06" xlink:href="#a" y1="-2679.14" y2="-2679.14"/><linearGradient id="a9" gradientTransform="matrix(-.11798914 -.37172377 .37172377 -.11798914 1459.7 886.08)" x1="2723.8" x2="2891.71" xlink:href="#a" y1="-2645.42" y2="-2645.42"/><linearGradient id="ba" gradientTransform="matrix(-.12619899 -.36901736 .36901736 -.12619899 1473.33 889.96)" x1="2793.11" x2="2960.32" xlink:href="#a" y1="-2608.68" y2="-2608.68"/><linearGradient id="bb" gradientTransform="matrix(-.13428294 -.3661531 .3661531 -.13428294 1486.96 893.85)" x1="2860.29" x2="3026.73" xlink:href="#a" y1="-2569.1" y2="-2569.1"/><linearGradient id="bc" gradientTransform="matrix(-.14217519 -.36316142 .36316142 -.14217519 1500.59 897.73)" x1="2925.18" x2="3090.78" xlink:href="#a" y1="-2526.86" y2="-2526.86"/><linearGradient id="bd" gradientTransform="matrix(-.15378258 -.36925725 .36925725 -.15378258 1514.22 901.62)" x1="2987.65" x2="3152.34" xlink:href="#a" y1="-2482.17" y2="-2482.17"/><linearGradient id="be" gradientTransform="matrix(-.16160973 -.3658993 .3658993 -.16160973 1527.85 905.5)" x1="3047.59" x2="3211.3" xlink:href="#a" y1="-2435.22" y2="-2435.22"/><linearGradient id="bf" gradientTransform="matrix(-.1692371 -.36243455 .36243455 -.1692371 1541.48 909.39)" x1="3104.89" x2="3267.58" xlink:href="#a" y1="-2386.24" y2="-2386.24"/><linearGradient id="bg" gradientTransform="matrix(-.17672761 -.35884168 .35884168 -.17672761 1555.11 913.27)" x1="3159.49" x2="3321.1" xlink:href="#a" y1="-2335.42" y2="-2335.42"/><linearGradient id="bh" gradientTransform="matrix(-.18861838 -.36403723 .36403723 -.18861838 1568.74 917.16)" x1="3211.34" x2="3371.81" xlink:href="#a" y1="-2282.98" y2="-2282.98"/><linearGradient id="bi" gradientTransform="matrix(-.19588659 -.36017835 .36017835 -.19588659 1582.37 921.04)" x1="3260.39" x2="3419.68" xlink:href="#a" y1="-2229.12" y2="-2229.12"/><linearGradient id="bj" gradientTransform="matrix(-.20295155 -.35624523 .35624523 -.20295155 1596 924.93)" x1="3306.62" x2="3464.69" xlink:href="#a" y1="-2174.06" y2="-2174.06"/><linearGradient id="bk" gradientTransform="matrix(-.21499503 -.36080069 .36080069 -.21499503 1609.63 928.81)" x1="3350.04" x2="3506.84" xlink:href="#a" y1="-2117.98" y2="-2117.98"/><linearGradient id="bl" gradientTransform="matrix(-.22181962 -.35664556 .35664556 -.22181962 1623.26 932.7)" x1="3390.65" x2="3546.16" xlink:href="#a" y1="-2061.08" y2="-2061.08"/><linearGradient id="bm" gradientTransform="matrix(-.22850243 -.35240125 .35240125 -.22850243 1636.9 936.58)" x1="3428.48" x2="3582.66" xlink:href="#a" y1="-2003.54" y2="-2003.54"/><linearGradient id="bn" gradientTransform="matrix(-.24057737 -.3564022 .3564022 -.24057737 1650.53 940.47)" x1="3463.57" x2="3616.4" xlink:href="#a" y1="-1945.53" y2="-1945.53"/><linearGradient id="bo" gradientTransform="matrix(-.24700659 -.35197691 .35197691 -.24700659 1664.16 944.35)" x1="3495.97" x2="3647.42" xlink:href="#a" y1="-1887.23" y2="-1887.23"/><linearGradient id="bp" gradientTransform="matrix(-.25912228 -.35560602 .35560602 -.25912228 1677.79 948.24)" x1="3525.74" x2="3675.79" xlink:href="#a" y1="-1828.78" y2="-1828.78"/><linearGradient id="bq" gradientTransform="matrix(-.265289 -.35102955 .35102955 -.265289 1691.42 952.13)" x1="3552.94" x2="3701.58" xlink:href="#a" y1="-1770.32" y2="-1770.32"/><linearGradient id="br" gradientTransform="matrix(-.27741885 -.35431452 .35431452 -.27741885 1705.05 956.01)" x1="3577.65" x2="3724.86" xlink:href="#a" y1="-1712.01" y2="-1712.01"/><linearGradient id="bs" gradientTransform="matrix(-.28331623 -.34961681 .34961681 -.28331623 1718.68 959.9)" x1="3599.95" x2="3745.72" xlink:href="#a" y1="-1653.94" y2="-1653.94"/><linearGradient id="bt" gradientTransform="matrix(-.29543622 -.35258678 .35258678 -.29543622 1732.31 963.78)" x1="3619.92" x2="3764.25" xlink:href="#a" y1="-1596.25" y2="-1596.25"/><linearGradient id="bu" gradientTransform="matrix(-.30105939 -.34779771 .34779771 -.30105939 1745.94 967.67)" x1="3637.66" x2="3780.53" xlink:href="#a" y1="-1539.03" y2="-1539.03"/><linearGradient id="bv" gradientTransform="matrix(-.30654508 -.34297247 .34297247 -.30654508 1759.57 971.55)" x1="3653.26" x2="3794.67" xlink:href="#a" y1="-1482.37" y2="-1482.37"/><linearGradient id="bw" gradientTransform="matrix(-.31855414 -.3455767 .3455767 -.31855414 1773.2 975.44)" x1="3666.8" x2="3806.76" xlink:href="#a" y1="-1426.36" y2="-1426.36"/><linearGradient id="bx" gradientTransform="matrix(-.33059246 -.34800665 .34800665 -.33059246 1786.83 979.32)" x1="3678.38" x2="3816.89" xlink:href="#a" y1="-1371.07" y2="-1371.07"/><linearGradient id="by" gradientTransform="matrix(-.33571867 -.3430641 .3430641 -.33571867 1800.46 983.21)" x1="3688.1" x2="3825.15" xlink:href="#a" y1="-1316.56" y2="-1316.56"/><linearGradient id="bz" gradientTransform="matrix(-.34774992 -.34521007 .34521007 -.34774992 1814.09 987.09)" x1="3696.04" x2="3831.65" xlink:href="#a" y1="-1262.9" y2="-1262.9"/><linearGradient id="bA" gradientTransform="matrix(-.3525359 -.34032108 .34032108 -.3525359 1827.72 990.98)" x1="3702.31" x2="3836.48" xlink:href="#a" y1="-1210.13" y2="-1210.13"/><linearGradient id="bB" gradientTransform="matrix(-.36448431 -.34227355 .34227355 -.36448431 1841.35 994.86)" x1="3706.99" x2="3839.73" xlink:href="#a" y1="-1158.29" y2="-1158.29"/><linearGradient id="bC" gradientTransform="matrix(-.36910996 -.33728006 .33728006 -.36910996 1854.98 998.75)" x1="3710.17" x2="3841.49" xlink:href="#a" y1="-1107.42" y2="-1107.42"/><linearGradient id="bD" gradientTransform="matrix(-.38096306 -.33906806 .33906806 -.38096306 1868.61 1002.63)" x1="3711.94" x2="3841.86" xlink:href="#a" y1="-1057.54" y2="-1057.54"/><linearGradient id="bE" gradientTransform="matrix(-.38531038 -.33411961 .33411961 -.38531038 1882.24 1006.52)" x1="3712.39" x2="3840.9" xlink:href="#a" y1="-1008.68" y2="-1008.68"/><linearGradient id="bF" gradientTransform="matrix(-.39711535 -.33570731 .33570731 -.39711535 1895.87 1010.4)" x1="3711.59" x2="3838.72" xlink:href="#a" y1="-960.85" y2="-960.85"/><linearGradient id="bG" gradientTransform="matrix(-.40896103 -.33712146 .33712146 -.40896103 1909.5 1014.29)" x1="3709.62" x2="3835.38" xlink:href="#a" y1="-914.07" y2="-914.07"/><linearGradient id="bH" gradientTransform="matrix(-.41299115 -.33217211 .33217211 -.41299115 1923.13 1018.17)" x1="3706.56" x2="3830.97" xlink:href="#a" y1="-868.35" y2="-868.35"/><linearGradient id="bI" gradientTransform="matrix(-.42471219 -.33349596 .33349596 -.42471219 1936.76 1022.06)" x1="3702.49" x2="3825.55" xlink:href="#a" y1="-823.69" y2="-823.69"/><linearGradient id="bJ" gradientTransform="matrix(-.42852553 -.32858161 .32858161 -.42852553 1950.39 1025.94)" x1="3697.47" x2="3819.2" xlink:href="#a" y1="-780.09" y2="-780.09"/><linearGradient id="bK" gradientTransform="matrix(-.44022969 -.32969353 .32969353 -.44022969 1964.02 1029.83)" x1="3691.56" x2="3811.99" xlink:href="#a" y1="-737.54" y2="-737.54"/><linearGradient id="bL" gradientTransform="matrix(-.45184004 -.33081804 .33081804 -.45184004 1977.65 1033.71)" x1="3684.84" x2="3803.98" xlink:href="#a" y1="-696.05" y2="-696.05"/><linearGradient id="bM" gradientTransform="matrix(-.45539332 -.32590939 .32590939 -.45539332 1991.28 1037.6)" x1="3677.36" x2="3795.22" xlink:href="#a" y1="-655.6" y2="-655.6"/><linearGradient id="bN" gradientTransform="matrix(-.46697372 -.32685707 .32685707 -.46697372 2004.91 1041.48)" x1="3669.18" x2="3785.79" xlink:href="#a" y1="-616.19" y2="-616.19"/><linearGradient id="bO" gradientTransform="matrix(-.47856583 -.32768086 .32768086 -.47856583 2018.54 1045.37)" x1="3660.35" x2="3775.72" xlink:href="#a" y1="-577.81" y2="-577.81"/><linearGradient id="bP" gradientTransform="matrix(-.48180199 -.32290377 .32290377 -.48180199 2032.18 1049.26)" x1="3650.93" x2="3765.08" xlink:href="#a" y1="-540.43" y2="-540.43"/><linearGradient id="bQ" gradientTransform="matrix(-.49329588 -.32366522 .32366522 -.49329588 2045.81 1053.14)" x1="3640.97" x2="3753.91" xlink:href="#a" y1="-504.05" y2="-504.05"/><linearGradient id="bR" gradientTransform="matrix(-.50479329 -.32432042 .32432042 -.50479329 2059.44 1057.03)" x1="3630.5" x2="3742.25" xlink:href="#a" y1="-468.65" y2="-468.65"/><linearGradient id="bS" gradientTransform="matrix(-.50782747 -.31954852 .31954852 -.50782747 2073.07 1060.91)" x1="3619.57" x2="3730.16" xlink:href="#a" y1="-434.21" y2="-434.21"/><linearGradient id="bT" gradientTransform="matrix(-.51921843 -.3201753 .3201753 -.51921843 2086.7 1064.8)" x1="3608.23" x2="3717.67" xlink:href="#a" y1="-400.72" y2="-400.72"/><linearGradient id="bU" gradientTransform="matrix(-.53060592 -.32071383 .32071383 -.53060592 2100.33 1068.68)" x1="3596.51" x2="3704.82" xlink:href="#a" y1="-368.16" y2="-368.16"/><linearGradient id="bV" gradientTransform="matrix(-.53338444 -.31607126 .31607126 -.53338444 2113.96 1072.57)" x1="3584.45" x2="3691.64" xlink:href="#a" y1="-336.5" y2="-336.5"/><linearGradient id="bW" gradientTransform="matrix(-.54471423 -.31652236 .31652236 -.54471423 2127.59 1076.45)" x1="3572.08" x2="3678.17" xlink:href="#a" y1="-305.73" y2="-305.73"/><linearGradient id="bX" gradientTransform="matrix(-.55603482 -.31689947 .31689947 -.55603482 2141.22 1080.34)" x1="3559.43" x2="3664.45" xlink:href="#a" y1="-275.84" y2="-275.84"/><linearGradient id="bY" gradientTransform="matrix(-.55861563 -.31232768 .31232768 -.55861563 2154.85 1084.22)" x1="3546.53" x2="3650.49" xlink:href="#a" y1="-246.79" y2="-246.79"/><linearGradient id="bZ" gradientTransform="matrix(-.56987239 -.3126427 .3126427 -.56987239 2168.48 1088.11)" x1="3533.41" x2="3636.33" xlink:href="#a" y1="-218.57" y2="-218.57"/><linearGradient id="b0" gradientTransform="matrix(-.58111505 -.31289822 .31289822 -.58111505 2182.11 1091.99)" x1="3520.1" x2="3621.99" xlink:href="#a" y1="-191.16" y2="-191.16"/><linearGradient id="b1" gradientTransform="matrix(-.5923417 -.31309952 .31309952 -.5923417 2195.74 1095.88)" x1="3506.61" x2="3607.5" xlink:href="#a" y1="-164.55" y2="-164.55"/><linearGradient id="b2" gradientTransform="matrix(-.59467478 -.30864527 .30864527 -.59467478 2209.37 1099.76)" x1="3492.98" x2="3592.88" xlink:href="#a" y1="-138.71" y2="-138.71"/><linearGradient id="b3" gradientTransform="matrix(-.60583055 -.30881928 .30881928 -.60583055 2223 1103.65)" x1="3479.22" x2="3578.15" xlink:href="#a" y1="-113.61" y2="-113.61"/><linearGradient id="b4" gradientTransform="matrix(-.61696642 -.30895377 .30895377 -.61696642 2236.63 1107.53)" x1="3465.36" x2="3563.33" xlink:href="#a" y1="-89.26" y2="-89.26"/><linearGradient id="b5" gradientTransform="matrix(-.62813479 -.30894447 .30894447 -.62813479 2250.26 1111.42)" x1="3451.4" x2="3548.44" xlink:href="#a" y1="-65.61" y2="-65.61"/><linearGradient id="b6" gradientTransform="matrix(-.63022314 -.30466177 .30466177 -.63022314 2263.89 1115.3)" x1="3437.38" x2="3533.49" xlink:href="#a" y1="-42.66" y2="-42.66"/><linearGradient id="b7" gradientTransform="matrix(-.6413149 -.30465588 .30465588 -.6413149 2277.52 1119.19)" x1="3423.3" x2="3518.5" xlink:href="#a" y1="-20.39" y2="-20.39"/><linearGradient id="b8" gradientTransform="matrix(-.65238219 -.30462678 .30462678 -.65238219 2291.15 1123.07)" x1="3409.17" x2="3503.48" xlink:href="#a" y1="1.22" y2="1.22"/><linearGradient id="b9" gradientTransform="matrix(-.66342377 -.30457988 .30457988 -.66342377 2304.78 1126.96)" x1="3395.02" x2="3488.45" xlink:href="#a" y1="22.19" y2="22.19"/><linearGradient id="ca" gradientTransform="matrix(-.66532439 -.30040548 .30040548 -.66532439 2318.41 1130.84)" x1="3380.85" x2="3473.42" xlink:href="#a" y1="42.53" y2="42.53"/><linearGradient id="cb" gradientTransform="matrix(-.67628604 -.30039506 .30039506 -.67628604 2332.04 1134.73)" x1="3366.68" x2="3458.4" xlink:href="#a" y1="62.27" y2="62.27"/><linearGradient id="cc" gradientTransform="matrix(-.68727205 -.30026177 .30026177 -.68727205 2345.67 1138.61)" x1="3352.52" x2="3443.41" xlink:href="#a" y1="81.41" y2="81.41"/><linearGradient id="cd" gradientTransform="matrix(-.69828132 -.30000533 .30000533 -.69828132 2359.3 1142.5)" x1="3338.37" x2="3428.44" xlink:href="#a" y1="99.98" y2="99.98"/><linearGradient id="ce" gradientTransform="matrix(-.69999763 -.29597857 .29597857 -.69999763 2372.93 1146.39)" x1="3324.25" x2="3413.52" xlink:href="#a" y1="117.99" y2="117.99"/><linearGradient id="cf" gradientTransform="matrix(-.7109235 -.29578332 .29578332 -.7109235 2386.56 1150.27)" x1="3310.16" x2="3398.64" xlink:href="#a" y1="135.45" y2="135.45"/><linearGradient id="cg" gradientTransform="matrix(-.72181845 -.2955979 .2955979 -.72181845 2400.19 1154.16)" x1="3296.12" x2="3383.83" xlink:href="#a" y1="152.38" y2="152.38"/><linearGradient id="ch" gradientTransform="matrix(-.73273322 -.29529989 .29529989 -.73273322 2413.83 1158.04)" x1="3282.12" x2="3369.07" xlink:href="#a" y1="168.79" y2="168.79"/><linearGradient id="ci" gradientTransform="matrix(-.73426936 -.29145928 .29145928 -.73426936 2427.46 1161.93)" x1="3268.18" x2="3354.38" xlink:href="#a" y1="184.7" y2="184.7"/><linearGradient id="cj" gradientTransform="matrix(-.74514992 -.29112127 .29112127 -.74514992 2441.09 1165.81)" x1="3254.31" x2="3339.77" xlink:href="#a" y1="200.12" y2="200.12"/><linearGradient id="ck" gradientTransform="matrix(-.75599731 -.2908059 .2908059 -.75599731 2454.72 1169.7)" x1="3240.5" x2="3325.24" xlink:href="#a" y1="215.07" y2="215.07"/><linearGradient id="cl" gradientTransform="matrix(-.76681087 -.29051865 .29051865 -.76681087 2468.35 1173.58)" x1="3226.77" x2="3310.8" xlink:href="#a" y1="229.55" y2="229.55"/><linearGradient id="cm" gradientTransform="matrix(-.76822145 -.28676785 .28676785 -.76822145 2481.98 1177.47)" x1="3213.11" x2="3296.45" xlink:href="#a" y1="243.58" y2="243.58"/><linearGradient id="cn" gradientTransform="matrix(-.7790492 -.28632558 .28632558 -.7790492 2495.61 1181.35)" x1="3199.54" x2="3282.19" xlink:href="#a" y1="257.17" y2="257.17"/><linearGradient id="co" gradientTransform="matrix(-.78979211 -.28605667 .28605667 -.78979211 2509.24 1185.24)" x1="3186.05" x2="3268.03" xlink:href="#a" y1="270.34" y2="270.34"/><linearGradient id="cp" gradientTransform="matrix(-.80054958 -.28569279 .28569279 -.80054958 2522.87 1189.12)" x1="3172.65" x2="3253.96" xlink:href="#a" y1="283.09" y2="283.09"/><linearGradient id="cq" gradientTransform="matrix(-.81132095 -.28523381 .28523381 -.81132095 2536.5 1193.01)" x1="3159.35" x2="3240.01" xlink:href="#a" y1="295.43" y2="295.43"/><linearGradient id="cr" gradientTransform="matrix(-.81260694 -.28154922 .28154922 -.81260694 2550.13 1196.89)" x1="3146.14" x2="3226.16" xlink:href="#a" y1="307.38" y2="307.38"/><linearGradient id="cs" gradientTransform="matrix(-.82333987 -.28108976 .28108976 -.82333987 2563.76 1200.78)" x1="3133.02" x2="3212.42" xlink:href="#a" y1="318.94" y2="318.94"/><linearGradient id="ct" gradientTransform="matrix(-.8340362 -.28068419 .28068419 -.8340362 2577.39 1204.66)" x1="3120.01" x2="3198.79" xlink:href="#a" y1="330.13" y2="330.13"/><linearGradient id="cu" gradientTransform="matrix(-.84469557 -.280338 .280338 -.84469557 2591.02 1208.55)" x1="3107.1" x2="3185.27" xlink:href="#a" y1="340.96" y2="340.96"/><linearGradient id="cv" gradientTransform="matrix(-.85541534 -.27975809 .27975809 -.85541534 2604.65 1212.43)" x1="3094.3" x2="3171.87" xlink:href="#a" y1="351.42" y2="351.42"/><linearGradient id="cw" gradientTransform="matrix(-.85657968 -.27617249 .27617249 -.85657968 2618.28 1216.32)" x1="3081.6" x2="3158.59" xlink:href="#a" y1="361.54" y2="361.54"/><linearGradient id="cx" gradientTransform="matrix(-.8672112 -.2757621 .2757621 -.8672112 2631.91 1220.2)" x1="3069.01" x2="3145.42" xlink:href="#a" y1="371.33" y2="371.33"/><linearGradient id="cy" gradientTransform="matrix(-.87785307 -.27527075 .27527075 -.87785307 2645.54 1224.09)" x1="3056.53" x2="3132.37" xlink:href="#a" y1="380.78" y2="380.78"/><linearGradient id="cz" gradientTransform="matrix(-.88850482 -.27469836 .27469836 -.88850482 2659.17 1227.97)" x1="3044.15" x2="3119.44" xlink:href="#a" y1="389.91" y2="389.91"/><linearGradient id="cA" gradientTransform="matrix(-.89911812 -.27420177 .27420177 -.89911812 2672.8 1231.86)" x1="3031.89" x2="3106.63" xlink:href="#a" y1="398.72" y2="398.72"/><linearGradient id="cB" gradientTransform="matrix(-.90016435 -.27074739 .27074739 -.90016435 2686.43 1235.74)" x1="3019.74" x2="3093.94" xlink:href="#a" y1="407.23" y2="407.23"/><linearGradient id="cC" gradientTransform="matrix(-.91073735 -.27029148 .27029148 -.91073735 2700.06 1239.63)" x1="3007.7" x2="3081.37" xlink:href="#a" y1="415.44" y2="415.44"/><linearGradient id="cD" gradientTransform="matrix(-.92131897 -.26976166 .26976166 -.92131897 2713.69 1243.52)" x1="2995.78" x2="3068.92" xlink:href="#a" y1="423.36" y2="423.36"/><linearGradient id="cE" gradientTransform="matrix(-.93190882 -.26915787 .26915787 -.93190882 2727.32 1247.4)" x1="2983.96" x2="3056.6" xlink:href="#a" y1="431" y2="431"/><linearGradient id="cF" gradientTransform="matrix(-.94250648 -.26848003 .26848003 -.94250648 2740.95 1251.29)" x1="2972.26" x2="3044.39" xlink:href="#a" y1="438.35" y2="438.35"/><linearGradient id="cG" gradientTransform="matrix(-.94343791 -.26518844 .26518844 -.94343791 2754.58 1255.17)" x1="2960.68" x2="3032.31" xlink:href="#a" y1="445.43" y2="445.43"/><linearGradient id="cH" gradientTransform="matrix(-.9635838 -.26740656 .26740656 -.9635838 2768.21 1259.06)" x1="2949.2" x2="3020.35" xlink:href="#a" y1="452.25" y2="452.25"/><linearGradient id="cI" gradientTransform="matrix(-.96451135 -.26404139 .26404139 -.96451135 2781.84 1262.94)" x1="2937.84" x2="3008.51" xlink:href="#a" y1="458.81" y2="458.81"/><circle cx="340.26" cy="249.8" fill="url(#a)" r="35.33"/><circle cx="340.25" cy="249.77" fill="url(#b)" r="35.28"/><circle cx="340.22" cy="249.67" fill="url(#c)" r="35.24"/><circle cx="340.17" cy="249.51" fill="url(#d)" r="35.19"/><circle cx="340.11" cy="249.29" fill="url(#e)" r="35.14"/><circle cx="340.02" cy="249" fill="url(#f)" r="35.09"/><circle cx="339.91" cy="248.66" fill="url(#g)" r="35.04"/><circle cx="339.79" cy="248.25" fill="url(#h)" r="35"/><circle cx="339.64" cy="247.79" fill="url(#i)" r="34.95"/><circle cx="339.47" cy="247.28" fill="url(#j)" r="34.91"/><circle cx="339.28" cy="246.71" fill="url(#k)" r="34.86"/><circle cx="339.07" cy="246.08" fill="url(#l)" r="34.82"/><circle cx="338.83" cy="245.41" fill="url(#m)" r="34.77"/><circle cx="338.58" cy="244.69" fill="url(#n)" r="34.73"/><circle cx="338.3" cy="243.92" fill="url(#o)" r="34.68"/><circle cx="337.99" cy="243.1" fill="url(#p)" r="34.64"/><circle cx="337.67" cy="242.23" fill="url(#q)" r="34.6"/><circle cx="337.32" cy="241.33" fill="url(#r)" r="34.55"/><circle cx="336.94" cy="240.38" fill="url(#s)" r="34.51"/><circle cx="336.55" cy="239.38" fill="url(#t)" r="34.47"/><circle cx="336.12" cy="238.35" fill="url(#u)" r="34.43"/><circle cx="335.68" cy="237.28" fill="url(#v)" r="34.39"/><circle cx="335.2" cy="236.17" fill="url(#w)" r="34.35"/><circle cx="334.7" cy="235.03" fill="url(#x)" r="34.31"/><circle cx="334.18" cy="233.85" fill="url(#y)" r="34.27"/><circle cx="333.63" cy="232.64" fill="url(#z)" r="34.23"/><circle cx="333.05" cy="231.4" fill="url(#A)" r="34.19"/><circle cx="332.44" cy="230.13" fill="url(#B)" r="34.15"/><circle cx="331.81" cy="228.83" fill="url(#C)" r="34.12"/><circle cx="331.15" cy="227.5" fill="url(#D)" r="34.08"/><circle cx="330.46" cy="226.15" fill="url(#E)" r="34.04"/><circle cx="329.74" cy="224.77" fill="url(#F)" r="34.01"/><circle cx="329" cy="223.37" fill="url(#G)" r="33.97"/><circle cx="328.22" cy="221.95" fill="url(#H)" r="33.93"/><circle cx="327.42" cy="220.51" fill="url(#I)" r="33.9"/><circle cx="326.59" cy="219.04" fill="url(#J)" r="33.87"/><circle cx="325.72" cy="217.57" fill="url(#K)" r="33.83"/><circle cx="324.83" cy="216.07" fill="url(#L)" r="33.8"/><circle cx="323.9" cy="214.56" fill="url(#M)" r="33.76"/><circle cx="322.95" cy="213.04" fill="url(#N)" r="33.73"/><circle cx="321.96" cy="211.5" fill="url(#O)" r="33.7"/><circle cx="320.94" cy="209.96" fill="url(#P)" r="33.67"/><circle cx="319.89" cy="208.41" fill="url(#Q)" r="33.64"/><circle cx="318.81" cy="206.85" fill="url(#R)" r="33.61"/><circle cx="317.69" cy="205.28" fill="url(#S)" r="33.58"/><circle cx="316.55" cy="203.71" fill="url(#T)" r="33.55"/><circle cx="315.36" cy="202.13" fill="url(#U)" r="33.52"/><circle cx="314.15" cy="200.56" fill="url(#V)" r="33.49"/><circle cx="312.9" cy="198.98" fill="url(#W)" r="33.46"/><circle cx="311.62" cy="197.4" fill="url(#X)" r="33.43"/><circle cx="310.3" cy="195.83" fill="url(#Y)" r="33.4"/><circle cx="308.94" cy="194.26" fill="url(#Z)" r="33.38"/><circle cx="307.56" cy="192.69" fill="url(#aa)" r="33.35"/><circle cx="306.13" cy="191.13" fill="url(#ab)" r="33.32"/><circle cx="304.67" cy="189.58" fill="url(#ac)" r="33.3"/><circle cx="303.18" cy="188.04" fill="url(#ad)" r="33.27"/><circle cx="301.64" cy="186.51" fill="url(#ae)" r="33.25"/><circle cx="300.07" cy="184.99" fill="url(#af)" r="33.22"/><circle cx="298.47" cy="183.49" fill="url(#ag)" r="33.2"/><circle cx="296.82" cy="182" fill="url(#ah)" r="33.18"/><circle cx="295.14" cy="180.52" fill="url(#ai)" r="33.15"/><circle cx="293.42" cy="179.07" fill="url(#aj)" r="33.13"/><circle cx="291.66" cy="177.63" fill="url(#ak)" r="33.11"/><circle cx="289.86" cy="176.22" fill="url(#al)" r="33.09"/><circle cx="288.03" cy="174.82" fill="url(#am)" r="33.07"/><circle cx="286.15" cy="173.45" fill="url(#an)" r="33.05"/><circle cx="284.23" cy="172.11" fill="url(#ao)" r="33.03"/><circle cx="282.28" cy="170.79" fill="url(#ap)" r="33.01"/><circle cx="280.28" cy="169.5" fill="url(#aq)" r="32.99"/><circle cx="278.24" cy="168.24" fill="url(#ar)" r="32.97"/><circle cx="276.16" cy="167" fill="url(#as)" r="32.95"/><circle cx="274.04" cy="165.8" fill="url(#at)" r="32.94"/><circle cx="271.88" cy="164.64" fill="url(#au)" r="32.92"/><circle cx="269.68" cy="163.51" fill="url(#av)" r="32.9"/><circle cx="267.43" cy="162.41" fill="url(#aw)" r="32.89"/><circle cx="265.14" cy="161.35" fill="url(#ax)" r="32.87"/><circle cx="262.81" cy="160.33" fill="url(#ay)" r="32.86"/><circle cx="260.43" cy="159.35" fill="url(#az)" r="32.84"/><circle cx="258.01" cy="158.42" fill="url(#aA)" r="32.83"/><circle cx="255.54" cy="157.52" fill="url(#aB)" r="32.81"/><circle cx="253.03" cy="156.67" fill="url(#aC)" r="32.8"/><circle cx="250.48" cy="155.87" fill="url(#aD)" r="32.79"/><circle cx="247.88" cy="155.11" fill="url(#aE)" r="32.78"/><circle cx="245.24" cy="154.41" fill="url(#aF)" r="32.77"/><circle cx="242.55" cy="153.75" fill="url(#aG)" r="32.76"/><circle cx="239.81" cy="153.14" fill="url(#aH)" r="32.75"/><circle cx="237.03" cy="152.59" fill="url(#aI)" r="32.74"/><circle cx="234.2" cy="152.09" fill="url(#aJ)" r="32.73"/><circle cx="231.32" cy="151.65" fill="url(#aK)" r="32.72"/><circle cx="228.4" cy="151.27" fill="url(#aL)" r="32.71"/><circle cx="225.43" cy="150.94" fill="url(#aM)" r="32.7"/><circle cx="222.41" cy="150.67" fill="url(#aN)" r="32.69"/><circle cx="219.34" cy="150.47" fill="url(#aO)" r="32.69"/><circle cx="216.22" cy="150.33" fill="url(#aP)" r="32.68"/><circle cx="213.05" cy="150.25" fill="url(#aQ)" r="32.67"/><circle cx="209.84" cy="150.24" fill="url(#aR)" r="32.67"/><circle cx="206.57" cy="150.29" fill="url(#aS)" r="32.66"/><circle cx="203.26" cy="150.42" fill="url(#aT)" r="32.66"/><circle cx="199.89" cy="150.61" fill="url(#aU)" r="32.66"/><circle cx="196.48" cy="150.87" fill="url(#aV)" r="32.65"/><circle cx="193.01" cy="151.21" fill="url(#aW)" r="32.65"/><circle cx="189.49" cy="151.62" fill="url(#aX)" r="32.65"/><circle cx="185.92" cy="152.11" fill="url(#aY)" r="32.65"/><circle cx="182.3" cy="152.67" fill="url(#aZ)" r="32.64"/><circle cx="178.62" cy="153.32" fill="url(#a0)" r="32.64"/><circle cx="174.98" cy="153.98" fill="url(#a1)" r="32.64"/><circle cx="171.4" cy="154.55" fill="url(#a2)" r="32.64"/><circle cx="167.89" cy="155.03" fill="url(#a3)" r="32.64"/><circle cx="164.43" cy="155.44" fill="url(#a4)" r="32.65"/><circle cx="161.04" cy="155.75" fill="url(#a5)" r="32.65"/><circle cx="157.7" cy="155.99" fill="url(#a6)" r="32.65"/><circle cx="154.43" cy="156.15" fill="url(#a7)" r="32.65"/><circle cx="151.21" cy="156.22" fill="url(#a8)" r="32.66"/><circle cx="148.05" cy="156.22" fill="url(#a9)" r="32.66"/><circle cx="144.95" cy="156.15" fill="url(#ba)" r="32.66"/><circle cx="141.9" cy="156" fill="url(#bb)" r="32.67"/><circle cx="138.91" cy="155.78" fill="url(#bc)" r="32.67"/><circle cx="135.98" cy="155.48" fill="url(#bd)" r="32.68"/><circle cx="133.1" cy="155.12" fill="url(#be)" r="32.69"/><circle cx="130.27" cy="154.69" fill="url(#bf)" r="32.69"/><circle cx="127.5" cy="154.2" fill="url(#bg)" r="32.7"/><circle cx="124.79" cy="153.64" fill="url(#bh)" r="32.71"/><circle cx="122.12" cy="153.01" fill="url(#bi)" r="32.72"/><circle cx="119.51" cy="152.33" fill="url(#bj)" r="32.73"/><circle cx="116.95" cy="151.58" fill="url(#bk)" r="32.74"/><circle cx="114.45" cy="150.78" fill="url(#bl)" r="32.75"/><circle cx="111.99" cy="149.92" fill="url(#bm)" r="32.76"/><circle cx="109.58" cy="149.01" fill="url(#bn)" r="32.77"/><circle cx="107.23" cy="148.04" fill="url(#bo)" r="32.78"/><circle cx="104.92" cy="147.02" fill="url(#bp)" r="32.79"/><circle cx="102.67" cy="145.95" fill="url(#bq)" r="32.8"/><circle cx="100.46" cy="144.83" fill="url(#br)" r="32.81"/><circle cx="98.3" cy="143.66" fill="url(#bs)" r="32.83"/><circle cx="96.19" cy="142.45" fill="url(#bt)" r="32.84"/><circle cx="94.12" cy="141.19" fill="url(#bu)" r="32.86"/><circle cx="92.1" cy="139.89" fill="url(#bv)" r="32.87"/><circle cx="90.13" cy="138.55" fill="url(#bw)" r="32.89"/><circle cx="88.2" cy="137.17" fill="url(#bx)" r="32.9"/><circle cx="86.32" cy="135.75" fill="url(#by)" r="32.92"/><circle cx="84.48" cy="134.3" fill="url(#bz)" r="32.94"/><circle cx="82.68" cy="132.81" fill="url(#bA)" r="32.95"/><circle cx="80.93" cy="131.28" fill="url(#bB)" r="32.97"/><circle cx="79.22" cy="129.73" fill="url(#bC)" r="32.99"/><circle cx="77.56" cy="128.14" fill="url(#bD)" r="33.01"/><circle cx="75.93" cy="126.53" fill="url(#bE)" r="33.03"/><circle cx="74.35" cy="124.89" fill="url(#bF)" r="33.05"/><circle cx="72.8" cy="123.22" fill="url(#bG)" r="33.07"/><circle cx="71.3" cy="121.54" fill="url(#bH)" r="33.09"/><circle cx="69.84" cy="119.82" fill="url(#bI)" r="33.11"/><circle cx="68.42" cy="118.09" fill="url(#bJ)" r="33.13"/><circle cx="67.03" cy="116.34" fill="url(#bK)" r="33.15"/><circle cx="65.69" cy="114.57" fill="url(#bL)" r="33.18"/><circle cx="64.38" cy="112.78" fill="url(#bM)" r="33.2"/><circle cx="63.11" cy="110.98" fill="url(#bN)" r="33.22"/><circle cx="61.87" cy="109.17" fill="url(#bO)" r="33.25"/><circle cx="60.67" cy="107.35" fill="url(#bP)" r="33.27"/><circle cx="59.51" cy="105.51" fill="url(#bQ)" r="33.3"/><circle cx="58.38" cy="103.67" fill="url(#bR)" r="33.32"/><circle cx="57.29" cy="101.82" fill="url(#bS)" r="33.35"/><circle cx="56.23" cy="99.97" fill="url(#bT)" r="33.38"/><circle cx="55.2" cy="98.11" fill="url(#bU)" r="33.4"/><circle cx="54.21" cy="96.25" fill="url(#bV)" r="33.43"/><circle cx="53.25" cy="94.39" fill="url(#bW)" r="33.46"/><circle cx="52.32" cy="92.53" fill="url(#bX)" r="33.49"/><circle cx="51.43" cy="90.68" fill="url(#bY)" r="33.52"/><circle cx="50.56" cy="88.83" fill="url(#bZ)" r="33.55"/><circle cx="49.73" cy="86.98" fill="url(#b0)" r="33.58"/><circle cx="48.92" cy="85.14" fill="url(#b1)" r="33.61"/><circle cx="48.15" cy="83.31" fill="url(#b2)" r="33.64"/><circle cx="47.4" cy="81.49" fill="url(#b3)" r="33.67"/><circle cx="46.68" cy="79.69" fill="url(#b4)" r="33.7"/><circle cx="45.99" cy="77.9" fill="url(#b5)" r="33.73"/><circle cx="45.33" cy="76.12" fill="url(#b6)" r="33.76"/><circle cx="44.69" cy="74.36" fill="url(#b7)" r="33.8"/><circle cx="44.08" cy="72.61" fill="url(#b8)" r="33.83"/><circle cx="43.5" cy="70.89" fill="url(#b9)" r="33.87"/><circle cx="42.94" cy="69.19" fill="url(#ca)" r="33.9"/><circle cx="42.4" cy="67.51" fill="url(#cb)" r="33.93"/><circle cx="41.9" cy="65.86" fill="url(#cc)" r="33.97"/><circle cx="41.41" cy="64.23" fill="url(#cd)" r="34.01"/><circle cx="40.95" cy="62.63" fill="url(#ce)" r="34.04"/><circle cx="40.51" cy="61.06" fill="url(#cf)" r="34.08"/><circle cx="40.09" cy="59.53" fill="url(#cg)" r="34.12"/><circle cx="39.69" cy="58.02" fill="url(#ch)" r="34.15"/><circle cx="39.32" cy="56.55" fill="url(#ci)" r="34.19"/><circle cx="38.97" cy="55.11" fill="url(#cj)" r="34.23"/><circle cx="38.63" cy="53.71" fill="url(#ck)" r="34.27"/><circle cx="38.32" cy="52.35" fill="url(#cl)" r="34.31"/><circle cx="38.02" cy="51.03" fill="url(#cm)" r="34.35"/><circle cx="37.75" cy="49.75" fill="url(#cn)" r="34.39"/><circle cx="37.49" cy="48.52" fill="url(#co)" r="34.43"/><circle cx="37.25" cy="47.33" fill="url(#cp)" r="34.47"/><circle cx="37.03" cy="46.18" fill="url(#cq)" r="34.51"/><circle cx="36.82" cy="45.09" fill="url(#cr)" r="34.55"/><circle cx="36.63" cy="44.04" fill="url(#cs)" r="34.6"/><circle cx="36.45" cy="43.05" fill="url(#ct)" r="34.64"/><circle cx="36.29" cy="42.1" fill="url(#cu)" r="34.68"/><circle cx="36.15" cy="41.22" fill="url(#cv)" r="34.73"/><circle cx="36.02" cy="40.39" fill="url(#cw)" r="34.77"/><circle cx="35.9" cy="39.61" fill="url(#cx)" r="34.82"/><circle cx="35.79" cy="38.9" fill="url(#cy)" r="34.86"/><circle cx="35.7" cy="38.24" fill="url(#cz)" r="34.91"/><circle cx="35.62" cy="37.65" fill="url(#cA)" r="34.95"/><circle cx="35.55" cy="37.12" fill="url(#cB)" r="35"/><circle cx="35.49" cy="36.66" fill="url(#cC)" r="35.04"/><circle cx="35.44" cy="36.26" fill="url(#cD)" r="35.09"/><circle cx="35.41" cy="35.94" fill="url(#cE)" r="35.14"/><circle cx="35.38" cy="35.68" fill="url(#cF)" r="35.19"/><circle cx="35.36" cy="35.49" fill="url(#cG)" r="35.24"/><circle cx="35.35" cy="35.38" fill="url(#cH)" r="35.28"/><circle cx="35.34" cy="35.34" fill="url(#cI)" r="35.33"/></svg>